# xmcd
#
# Track frame offsets:
# 150
# 13070
# 27770
# 41270
# 60845
# 75490
# 87562
# 100705
# 114825
# 127300
# 144677
# 157377
#
# Disc length: 2260 seconds
#
# Revision: 0
# Processed by: cddbd v1.4PL0 Copyright (c) Steve Scherf et al.
# Submitted via: Audion 3.0.2 (http://www.panic.com/audion/)
#
DISCID=9508d20c
DTITLE=Champion Selection - Otis Redding
DYEAR=1900
DGENRE=
TTITLE0=Stand By Me
TTITLE1=You Send Me
TTITLE2=It`s Too Late
TTITLE3=A Change is Gonna Come
TTITLE4=I`ve Been Loving You Too Long
TTITLE5=shake
TTITLE6=My Girl
TTITLE7=wonderful World
TTITLE8=satisfaction
TTITLE9=Try A Little Tenderness
TTITLE10=Day Tripper
TTITLE11=(Sittin` On)The Dock Of The Bay
EXTD=
EXTT0=
EXTT1=
EXTT2=
EXTT3=
EXTT4=
EXTT5=
EXTT6=
EXTT7=
EXTT8=
EXTT9=
EXTT10=
EXTT11=
PLAYORDER=
